<mxfile host="app.diagrams.net" agent="Mozilla/5.0 (Macintosh; Intel Mac OS X 10.15; rv:132.0) Gecko/20100101 Firefox/132.0" version="24.8.2">
  <diagram name="Page-1" id="0sxwhc7gnIlPoRvY7HMK">
    <mxGraphModel dx="557" dy="354" grid="1" gridSize="10" guides="1" tooltips="1" connect="1" arrows="1" fold="1" page="1" pageScale="1" pageWidth="827" pageHeight="1169" math="0" shadow="0">
      <root>
        <mxCell id="0" />
        <mxCell id="1" parent="0" />
        <mxCell id="Qz5-u3KKVejyxk5Rwd6U-1" value="RV64" style="whiteSpace=wrap;html=1;aspect=fixed;fillColor=#d9d9ff;" vertex="1" parent="1">
          <mxGeometry x="110" y="20" width="100" height="100" as="geometry" />
        </mxCell>
        <mxCell id="Qz5-u3KKVejyxk5Rwd6U-2" value="&lt;div&gt;DLA&lt;/div&gt;&lt;div&gt;MAC Array&lt;br&gt;&lt;/div&gt;" style="whiteSpace=wrap;html=1;aspect=fixed;fillColor=#d9d9ff;" vertex="1" parent="1">
          <mxGeometry x="260" width="100" height="100" as="geometry" />
        </mxCell>
        <mxCell id="Qz5-u3KKVejyxk5Rwd6U-6" value="&lt;div&gt;AXI 64-bit&lt;br&gt;&lt;/div&gt;" style="rounded=0;whiteSpace=wrap;html=1;fillColor=#d9d9fc;" vertex="1" parent="1">
          <mxGeometry x="120" y="160" width="220" height="20" as="geometry" />
        </mxCell>
        <mxCell id="Qz5-u3KKVejyxk5Rwd6U-7" value="&lt;div&gt;AXI 32-bit&lt;br&gt;&lt;/div&gt;" style="rounded=0;whiteSpace=wrap;html=1;fillColor=#d9d9fc;" vertex="1" parent="1">
          <mxGeometry x="120" y="210" width="220" height="20" as="geometry" />
        </mxCell>
        <mxCell id="Qz5-u3KKVejyxk5Rwd6U-9" value="" style="endArrow=classic;html=1;rounded=0;exitX=0.5;exitY=1;exitDx=0;exitDy=0;startArrow=classic;startFill=1;" edge="1" parent="1">
          <mxGeometry width="50" height="50" relative="1" as="geometry">
            <mxPoint x="190" y="180" as="sourcePoint" />
            <mxPoint x="190" y="210" as="targetPoint" />
          </mxGeometry>
        </mxCell>
        <mxCell id="Qz5-u3KKVejyxk5Rwd6U-10" value="SDRAM" style="rounded=0;whiteSpace=wrap;html=1;fillColor=#d9d9fc;" vertex="1" parent="1">
          <mxGeometry x="120" y="270" width="200" height="50" as="geometry" />
        </mxCell>
        <mxCell id="Qz5-u3KKVejyxk5Rwd6U-11" value="" style="endArrow=classic;html=1;rounded=0;exitX=0.5;exitY=1;exitDx=0;exitDy=0;entryX=0.198;entryY=0.036;entryDx=0;entryDy=0;entryPerimeter=0;startArrow=classic;startFill=1;" edge="1" parent="1">
          <mxGeometry width="50" height="50" relative="1" as="geometry">
            <mxPoint x="219.76" y="230" as="sourcePoint" />
            <mxPoint x="219.76" y="271" as="targetPoint" />
          </mxGeometry>
        </mxCell>
        <mxCell id="Qz5-u3KKVejyxk5Rwd6U-12" value="" style="endArrow=classic;html=1;rounded=0;exitX=0.5;exitY=1;exitDx=0;exitDy=0;entryX=0.198;entryY=0.036;entryDx=0;entryDy=0;entryPerimeter=0;startArrow=classic;startFill=1;" edge="1" parent="1">
          <mxGeometry width="50" height="50" relative="1" as="geometry">
            <mxPoint x="309.76" y="120" as="sourcePoint" />
            <mxPoint x="309.76" y="161" as="targetPoint" />
          </mxGeometry>
        </mxCell>
        <mxCell id="Qz5-u3KKVejyxk5Rwd6U-15" value="Memory Banks" style="rounded=0;whiteSpace=wrap;html=1;fillColor=#d9d9fc;" vertex="1" parent="1">
          <mxGeometry x="260" y="100" width="100" height="20" as="geometry" />
        </mxCell>
        <mxCell id="Qz5-u3KKVejyxk5Rwd6U-16" value="" style="endArrow=classic;html=1;rounded=0;exitX=0.5;exitY=1;exitDx=0;exitDy=0;entryX=0.198;entryY=0.036;entryDx=0;entryDy=0;entryPerimeter=0;startArrow=classic;startFill=1;" edge="1" parent="1">
          <mxGeometry width="50" height="50" relative="1" as="geometry">
            <mxPoint x="159.76" y="120" as="sourcePoint" />
            <mxPoint x="159.76" y="161" as="targetPoint" />
          </mxGeometry>
        </mxCell>
        <mxCell id="Qz5-u3KKVejyxk5Rwd6U-18" value="" style="endArrow=classic;html=1;rounded=0;exitX=1;exitY=0.75;exitDx=0;exitDy=0;entryX=1;entryY=0.5;entryDx=0;entryDy=0;startArrow=none;startFill=0;" edge="1" parent="1" source="Qz5-u3KKVejyxk5Rwd6U-2" target="Qz5-u3KKVejyxk5Rwd6U-6">
          <mxGeometry width="50" height="50" relative="1" as="geometry">
            <mxPoint x="390" y="79" as="sourcePoint" />
            <mxPoint x="390" y="120" as="targetPoint" />
            <Array as="points">
              <mxPoint x="380" y="75" />
              <mxPoint x="380" y="170" />
            </Array>
          </mxGeometry>
        </mxCell>
      </root>
    </mxGraphModel>
  </diagram>
</mxfile>
